<?xml version="1.0" encoding="utf-8"?>
<!-- Generator: Adobe Illustrator 26.3.1, SVG Export Plug-In . SVG Version: 6.00 Build 0)  -->
<svg version="1.1" id="Layer_1" xmlns="http://www.w3.org/2000/svg" xmlns:xlink="http://www.w3.org/1999/xlink" x="0px" y="0px"
	 viewBox="0 0 100 43" style="enable-background:new 0 0 100 43;" xml:space="preserve">
<style type="text/css">
	.st0{clip-path:url(#SVGID_00000118391710526447753650000012179969400917516693_);}
	.st1{fill:#FC3F1D;}
</style>
<g>
	<defs>
		<rect id="SVGID_1_" width="100" height="43"/>
	</defs>
	<clipPath id="SVGID_00000002351393725808025370000000392545419814652810_">
		<use xlink:href="#SVGID_1_"  style="overflow:visible;"/>
	</clipPath>
	<g style="clip-path:url(#SVGID_00000002351393725808025370000000392545419814652810_);">
		<path d="M93.8,31.8c1.9,0,3.2-0.3,4.2-1.1v-3.3c-1,0.7-2.3,1.2-4,1.2c-2.9,0-4.1-2.3-4.1-5.8c0-3.7,1.5-5.7,4.2-5.7
			c1.6,0,3.1,0.5,3.9,1.1v-3.5c-0.9-0.5-2.4-0.8-4.4-0.8c-5.2,0-7.9,3.7-7.9,9C85.7,28.6,88.3,31.8,93.8,31.8z M68.2,30.3V27
			c-1.3,0.9-3.4,1.6-5.4,1.6c-3,0-4.1-1.4-4.3-4.3h9.8v-2.2c0-6-2.6-8.3-6.7-8.3c-5,0-7.3,3.8-7.3,9c0,6,3,8.9,8.2,8.9
			C65.1,31.8,67,31.1,68.2,30.3z M30.8,14.2V21h-5.5v-6.8h-4.1v17.3h4.1v-7.2h5.5v7.2h4.1V14.2H30.8L30.8,14.2z M53.3,28.2h-1.8v-14
			H39.6v1.5c0,4.2-0.3,9.7-1.7,12.6h-1.3v7.2h3.8v-3.9h9.2v3.9h3.8V28.2L53.3,28.2z M81.3,31.5h4.6l-6.6-9.3l5.8-8H81l-5.8,8v-8
			h-4.1v17.3h4.1V23L81.3,31.5L81.3,31.5z M61.6,17.1c2,0,2.6,1.7,2.6,3.8v0.3h-5.7C58.7,18.5,59.7,17.1,61.6,17.1L61.6,17.1z
			 M47.4,28.2h-5.8c1.1-2.6,1.4-7.3,1.4-10.3v-0.5h4.3C47.4,17.4,47.4,28.2,47.4,28.2z"/>
		<path class="st1" d="M17.9,31.5h-4.2V10.8h-1.9c-3.4,0-5.2,1.7-5.2,4.3c0,2.9,1.2,4.2,3.8,5.9l2.1,1.4l-6,9H2l5.4-8.1
			c-3.1-2.2-4.9-4.4-4.9-8.1c0-4.6,3.2-7.7,9.3-7.7h6V31.5z"/>
	</g>
</g>
</svg>
